<?xml version="1.0" encoding="UTF-8" standalone="no"?>
<!-- Created with Inkscape (http://www.inkscape.org/) -->

<svg
   width="512"
   height="256"
   viewBox="0 0 135.46667 67.733333"
   version="1.1"
   id="svg5"
   inkscape:version="1.2.1 (9c6d41e410, 2022-07-14)"
   sodipodi:docname="ems.svg"
   xmlns:inkscape="http://www.inkscape.org/namespaces/inkscape"
   xmlns:sodipodi="http://sodipodi.sourceforge.net/DTD/sodipodi-0.dtd"
   xmlns="http://www.w3.org/2000/svg"
   xmlns:svg="http://www.w3.org/2000/svg">
  <sodipodi:namedview
     id="namedview7"
     pagecolor="#505050"
     bordercolor="#eeeeee"
     borderopacity="1"
     inkscape:showpageshadow="0"
     inkscape:pageopacity="0"
     inkscape:pagecheckerboard="0"
     inkscape:deskcolor="#505050"
     inkscape:document-units="mm"
     showgrid="false"
     inkscape:zoom="1.4142136"
     inkscape:cx="248.19448"
     inkscape:cy="101.82338"
     inkscape:window-width="1920"
     inkscape:window-height="1009"
     inkscape:window-x="1912"
     inkscape:window-y="-8"
     inkscape:window-maximized="1"
     inkscape:current-layer="layer1" />
  <defs
     id="defs2" />
  <g
     inkscape:label="Layer 1"
     inkscape:groupmode="layer"
     id="layer1">
    <path
       id="rect476"
       style="fill:#a0cfff;stroke-width:0.264583;stroke-linecap:round;stroke-linejoin:round;paint-order:markers fill stroke;fill-opacity:1"
       d="m 10.932099,19.662538 c -0.449045,0.905066 -0.914496,40.531255 0.467722,41.901663 1.413841,1.401761 26.918034,1.667955 30.56661,0 1.149664,-0.525572 1.018209,-7.893759 0,-9.246464 -1.42375,-1.891472 -20.19071,2.173038 -21.320146,0 -0.785506,-1.511316 -0.923732,-12.954013 0,-13.933 1.174828,-1.245103 20.773562,1.115623 21.320146,0 0.807053,-1.647264 0.701339,-8.566333 0,-9.246464 -1.674842,-1.624198 -20.994155,0.965112 -21.320146,0 -0.520036,-1.53959 -0.970594,-13.164833 0,-13.933516 1.659738,-1.314466 19.95444,1.724924 21.320146,0 1.308376,-1.652514 1.269649,-8.0383165 0,-9.2464644 C 40.547924,4.6084972 30.188139,5.7154849 27.074369,5.8567969 22.417708,6.0681298 13.2706,14.949205 10.932099,19.662538 Z"
       sodipodi:nodetypes="ssssssssssssss" />
    <path
       id="rect476-98"
       style="fill:#a0cfff;stroke-width:0.264583;stroke-linecap:round;stroke-linejoin:round;paint-order:markers fill stroke;fill-opacity:1"
       d="m 49.896179,5.9582926 c -0.650708,0.7119187 -0.360948,55.3321974 0,55.6059084 1.192669,0.904416 8.364866,1.438087 9.246464,0 0.928182,-1.514076 -1.082506,-41.606632 0,-42.023792 0.676685,-0.26077 9.524483,10.247954 9.524483,10.247954 v 5.16e-4 h 5.17e-4 0.972551 v -0.001 l 0.001,0.001 c 0,0 8.947444,-10.646849 9.525,-10.24847 0.806579,0.55635 -0.902178,41.558416 0,42.023792 1.535123,0.791872 7.670804,1.175099 9.246981,0 0.724274,-0.539974 0.888142,-55.2336528 0,-55.6059084 C 86.598406,5.1976507 79.996575,5.6250103 79.153308,5.9159179 78.091348,6.2822697 69.883887,16.805072 69.166837,16.774687 68.45418,16.744488 59.739477,6.1867642 59.14316,5.9582926 c -0.802499,-0.3074678 -8.649288,-0.6539167 -9.246981,0 z"
       sodipodi:nodetypes="ssssccccccssssssss" />
    <path
       style="fill:#a0cfff;stroke-width:0.256928;stroke-linecap:round;stroke-linejoin:round;paint-order:markers fill stroke;fill-opacity:1"
       id="path1689"
       d="M 116.25007,7.8236712 C 110.66606,4.876772 102.94984,5.3358093 98.461658,10.04533 c -3.759986,4.241695 -3.564726,10.786523 -0.928609,15.554716 3.533491,6.816435 10.426851,10.729228 15.860521,15.815786 3.31046,3.106878 6.62788,7.633149 4.76018,11.252169 -0.96152,1.863123 -4.0639,1.641663 -6.14132,1.358653 -3.49906,-0.476683 -7.91284,-4.143021 -9.35492,-4.972048 -1.70372,-0.979438 -2.788934,0.800567 -3.72059,1.819331 -0.944445,1.032749 -2.796905,2.763953 -1.500738,3.92106 4.364198,4.658649 11.111028,7.076267 17.529858,6.749004 3.54234,-0.194225 7.09422,-1.149231 9.26678,-4.368216 2.3278,-3.349994 2.09464,-7.137614 1.16212,-10.813985 -1.73858,-6.109913 -6.37573,-10.7611 -11.30879,-14.482749 -3.91768,-3.228519 -9.14701,-6.30871 -10.34999,-11.263721 -0.52352,-2.156345 0.0877,-4.957334 1.75509,-6.421429 1.14808,-1.008077 3.04605,-0.94415 4.54051,-0.626526 3.00802,0.639306 6.15233,3.551936 7.83621,4.86887 1.657,1.295915 3.00063,0.205697 4.29418,-0.423203 1.15789,-0.562945 3.54272,-1.542049 2.67202,-2.789064 -1.56391,-2.23984 -5.35125,-5.56836 -8.5841,-7.4003068 z"
       sodipodi:nodetypes="ccccaasacccccaaasasc" />
    <path
       style="fill:#a0cfff;stroke-width:0.372483;stroke-linecap:round;stroke-linejoin:round;paint-order:markers fill stroke;fill-opacity:1"
       d="M 4.8390816,17.100482 C 5.8393376,17.370037 7.5709179,11.596588 11.473131,8.6375043 16.128724,5.1071259 20.84136,4.0167934 22.141914,3.1017183 23.878479,1.8798635 7.25728,2.6949168 5.2350406,3.7825396 3.8733046,4.5149232 3.5826865,16.761902 4.8390816,17.100482 Z"
       id="path1797"
       sodipodi:nodetypes="sssss" />
  </g>
</svg>
